# xmcd CD database file
#
# Track frame offsets:
#	150
#	21345
#	42340
#	65143
#	83789
#	103618
#	120348
#	138051
#	164594
#
# Disc length: 2481 seconds
#
# Revision: 5
# Processed by: cddbd v1.5.2PL0 Copyright (c) Steve Scherf et al.
# Submitted via: CDex 1.70beta2
#
DISCID=7409af09
DTITLE=GEORGE HARRISON - Dark horse
DYEAR=1974
DGENRE=Rock
TTITLE0=Hari´s on tour (Express)
TTITLE1=Simple shady
TTITLE2=So sad
TTITLE3=Bye bye, love
TTITLE4=Maya love
TTITLE5=Ding dong, ding dong
TTITLE6=Dark horse
TTITLE7=Far east man
TTITLE8=It is "he" (Jai Sri Krishna)
EXTD=YEAR: 1974
EXTT0=
EXTT1=
EXTT2=
EXTT3=
EXTT4=
EXTT5=
EXTT6=
EXTT7=
EXTT8=
PLAYORDER=
